<?xml version="1.0" encoding="UTF-8" standalone="no"?>
<!-- Created with Inkscape (http://www.inkscape.org/) -->

<svg
   width="674.26288mm"
   height="710.86639mm"
   viewBox="0 0 674.26288 710.86639"
   version="1.1"
   id="svg1"
   xml:space="preserve"
   xmlns:inkscape="http://www.inkscape.org/namespaces/inkscape"
   xmlns:sodipodi="http://sodipodi.sourceforge.net/DTD/sodipodi-0.dtd"
   xmlns:xlink="http://www.w3.org/1999/xlink"
   xmlns="http://www.w3.org/2000/svg"
   xmlns:svg="http://www.w3.org/2000/svg"><sodipodi:namedview
     id="namedview1"
     pagecolor="#ffffff"
     bordercolor="#000000"
     borderopacity="0.25"
     inkscape:showpageshadow="2"
     inkscape:pageopacity="0.0"
     inkscape:pagecheckerboard="0"
     inkscape:deskcolor="#d1d1d1"
     inkscape:document-units="mm" /><defs
     id="defs1"><linearGradient
       id="linearGradient14"
       inkscape:collect="always"><stop
         style="stop-color:#f98200;stop-opacity:1"
         offset="0"
         id="stop13" /><stop
         style="stop-color:#f05201;stop-opacity:1"
         offset="1"
         id="stop14" /></linearGradient><linearGradient
       id="linearGradient11"
       inkscape:collect="always"><stop
         style="stop-color:#f98100;stop-opacity:1"
         offset="0"
         id="stop11" /><stop
         style="stop-color:#f85a01;stop-opacity:1"
         offset="1"
         id="stop12" /></linearGradient><linearGradient
       id="linearGradient4"
       inkscape:collect="always"><stop
         style="stop-color:#f98200;stop-opacity:1"
         offset="0"
         id="stop4" /><stop
         style="stop-color:#f05201;stop-opacity:1"
         offset="1"
         id="stop5" /></linearGradient><linearGradient
       inkscape:collect="always"
       xlink:href="#linearGradient14"
       id="linearGradient5"
       x1="152.79688"
       y1="149.35728"
       x2="154.91354"
       y2="161.66042"
       gradientUnits="userSpaceOnUse" /><linearGradient
       inkscape:collect="always"
       xlink:href="#linearGradient4"
       id="linearGradient6"
       x1="152.79688"
       y1="149.35728"
       x2="154.91354"
       y2="161.66042"
       gradientUnits="userSpaceOnUse" /><linearGradient
       inkscape:collect="always"
       xlink:href="#linearGradient11"
       id="linearGradient12"
       x1="132.97075"
       y1="155.24873"
       x2="135.70325"
       y2="137.14767"
       gradientUnits="userSpaceOnUse" /></defs><g
     inkscape:label="Layer 1"
     inkscape:groupmode="layer"
     id="layer1"
     transform="translate(558.95747,-312.3597)"><g
       id="g15"
       transform="matrix(13.863581,0,0,14.572193,-2553.8351,-1520.8669)"
       inkscape:export-filename="g15.png"
       inkscape:export-xdpi="96"
       inkscape:export-ydpi="96"><g
         id="g14"
         transform="translate(15.874996,-3.9687503)"><path
           style="fill:url(#linearGradient6);fill-opacity:1;stroke:#f87d01;stroke-width:0.437999;stroke-linecap:round;stroke-linejoin:round;stroke-miterlimit:30;stroke-opacity:0;paint-order:normal"
           d="m 132.02987,130.05905 0.13655,26.55858 8.32942,-7.37359 0.0683,-10.58247 h 12.49414 c 0,0 14.952,0.34138 15.02027,15.63474 0.0683,15.29337 -15.15681,16.18093 -15.15681,16.18093 l -5.79643,0.0683 -0.50203,1.34639 -1.52512,-1.77224 -4.26092,0.0845 -7.90654,8.13102 h 21.49306 c 0,0 21.02838,-1.98636 21.98421,-24.31195 0.95584,-22.32559 -23.69106,-24.03244 -23.69106,-24.03244 z"
           id="path2"
           sodipodi:nodetypes="cccccscccccccscc" /><path
           style="fill:url(#linearGradient5);fill-opacity:1;stroke:#f87d01;stroke-width:0.437999;stroke-linecap:round;stroke-linejoin:round;stroke-miterlimit:30;stroke-opacity:0;paint-order:normal"
           d="m 145.79649,151.97594 v -7.53121 c 0,0 -0.17634,-2.5272 2.10045,-1.21269 2.27678,1.3145 13.87923,8.59907 13.87923,8.59907 0,0 2.41385,1.35176 0.28966,2.70351 -2.12419,1.35176 -12.26235,7.43466 -12.26235,7.43466 l 3.95871,-12.88996 z"
           id="path3" /><g
           id="g4"
           transform="matrix(-0.08083256,-0.99795268,-1.0502719,0.09606719,320.10846,208.92223)"><path
             style="fill:#5a5b5f;fill-opacity:1;stroke:#5a5b5f;stroke-width:0.437999;stroke-linecap:round;stroke-linejoin:round;stroke-miterlimit:30;stroke-opacity:1;paint-order:normal"
             d="m 54.823994,161.5362 17.546407,-6.41775 -20.960106,21.77939 -1.979946,-1.8434 10.514192,-10.78728 z"
             id="path4" /><path
             style="fill:#81888b;fill-opacity:1;stroke:#81888b;stroke-width:0.439043;stroke-linecap:round;stroke-linejoin:round;stroke-miterlimit:30;stroke-opacity:1;paint-order:normal"
             d="m 67.20191,172.28855 5.167828,-17.17487 -21.025504,21.72975 2.118912,1.71726 10.401894,-10.88841 z"
             id="path4-1" /></g><path
           style="fill:url(#linearGradient12);fill-opacity:1;stroke:#f87d01;stroke-width:0.437999;stroke-linecap:round;stroke-linejoin:round;stroke-miterlimit:30;stroke-opacity:0;paint-order:normal"
           d="m 132.02915,130.05924 0.13643,26.55859 8.3292,-7.37526 0.0703,-10.58127 z"
           id="path11" /></g></g></g></svg>
